<svg width="325" height="80" xmlns="http://www.w3.org/2000/svg" color-interpolation-filters="sRGB" preserveAspectRatio="xMidYMid meet" version="1.0">
 <!-- Wrapper group from the FIRST SVG to maintain position -->
 <g class="icon-text-wrapper icon-svg-group iconsvg" fill="#333">
  <!-- Content (icon and text) from the SECOND SVG -->
  <g id="svg_3" class="iconsvg-imagesvg">
   <g id="svg_4">
    <rect id="svg_5" class="image-rect" height="59.97721" width="60" y="10.0114" x="44.885" stroke-width="2" fill-opacity="0" fill="#333"/>
    <g id="svg_1">
     <svg id="svg_6" class="image-svg-svg primary" filtersec="colorsb7137713027" height="59.97721" width="60" y="10.0114" x="44.885">
      <g id="svg_2">
       <svg id="svg_7" viewBox="-0.024392234161496162 -0.00439166696742177 206.4888916015625 206.41061401367188" xmlns="http://www.w3.org/2000/svg">
        <title>资源 7</title>
        <g id="svg_8" fill-rule="evenodd">
         <path id="svg_9" opacity="0.48" fill="#03b2de" d="m176.24,176.18a102.91,102.91 0 0 1 -76.44,30.16c-8.75,-0.29 -10.94,-10.72 -6.79,-17c17.92,-27.07 75.72,-28.09 101.23,-60a56.23,56.23 0 0 0 10.57,-21.88c0.56,-2.21 1.26,-4.67 1.63,-6.42a102.92,102.92 0 0 1 -30.2,75.1l0,0.04z"/>
         <path id="svg_10" opacity="0.48" fill="#8e03ff" d="m176.18,176.24a102.92,102.92 0 0 0 30.16,-76.44c-0.29,-8.76 -10.73,-10.94 -17,-6.79c-21.13,13.99 -26.34,52.29 -42.84,80.55c-9.44,16.21 -25.92,31.19 -45.38,32.82a102.78,102.78 0 0 0 75.06,-30.14z"/>
         <path id="svg_11" opacity="0.48" fill="#00deb9" d="m30.22,30.28a102.94,102.94 0 0 1 76.44,-30.16c8.77,0.29 10.94,10.73 6.79,17c-17.91,27.07 -75.72,28.09 -101.23,60a56.23,56.23 0 0 0 -10.57,21.88c-0.56,2.17 -1.25,4.63 -1.65,6.38a102.93,102.93 0 0 1 30.2,-75.1l0.02,0z"/>
         <path id="svg_12" opacity="0.48" fill="#1d88e1" d="m30.28,30.22a102.94,102.94 0 0 0 -30.16,76.44c0.29,8.77 10.73,10.94 17,6.79c27.07,-17.91 28.09,-75.72 60,-101.23a56.23,56.23 0 0 1 21.88,-10.57c2.21,-0.56 4.67,-1.25 6.42,-1.63a102.93,102.93 0 0 0 -75.1,30.2l-0.04,0z"/>
         <path id="svg_13" opacity="0.48" fill="#8e03ff" d="m44,187.8c-32.11,-55.4 181.83,-82.46 145,-142a103.71,103.71 0 0 0 -26.5,-27.07c25.84,44.36 -100,69.18 -138.89,106.54c-11.31,10.85 -12.71,26.36 -3.61,39.07a103.82,103.82 0 0 0 24,23.46z"/>
         <path id="svg_14" opacity="0.48" fill="#1d88e1" d="m187.75,44c-51.41,-29.78 -77.2,148.08 -127.43,150c-4.47,0.18 -9.6,-2 -14.56,-5a103.71,103.71 0 0 1 -27.07,-26.5c52.81,30.78 77.94,-153.5 129.48,-149.96c4.69,0.32 10.6,3.57 16.11,7.51a104.32,104.32 0 0 1 23.47,24l0,-0.05z"/>
        </g>
       </svg>
      </g>
     </svg>
    </g>
   </g>
  </g>
  <g id="svg_15">
   <g id="svg_16" class="tp-name iconsvg-namesvg" data-gra="path-name">
    <g id="svg_17" transform="translate(44.885 10.0114) scale(1 1)">
     <g id="svg_18">
      <path id="svg_19" d="m78.36,19.1253c0,-3.13 -2.22,-4.79 -5.79,-4.79c-3.21,0 -5.37,1.6 -5.37,3.76c0,5.09 8.47,3.25 8.47,6.55c0,1.13 -1.18,1.87 -2.86,1.87c-1.94,0 -3.08,-1 -3.08,-2.61l-2.73,0c0,3.31 2.34,4.81 5.87,4.81c3.23,0 5.49,-1.62 5.49,-4.07c0,-5.08 -8.55,-3.54 -8.55,-6.51c0,-1.2 1.46,-1.62 2.78,-1.62c1.82,0 3.08,1.02 3.08,2.61l2.69,0zm0.32,-4.59l0,2.62l11.1,0l0,-2.62l-11.1,0zm4.21,4.39l0,9.59l2.7,0l0,-9.59l-2.7,0zm13.82,-4.39l-3.41,0l-5.01,13.98l2.91,0l3.72,-11.08l0.2,0l3.97,11.08l3.11,0l-5.49,-13.98zm6.95,13.98l2.7,0l0,-4.93l3.13,0l2.62,4.93l3.03,0l-3.25,-5.39c1.7,-0.84 2.46,-2.68 2.46,-4.18c0,-2.81 -1.76,-4.41 -4.92,-4.41l-5.77,0l0,2.36l5.47,0c1.8,0 2.68,0.74 2.68,2.11c0,1.48 -1.04,2.34 -2.66,2.34l-5.49,0l0,7.17zm18.93,0l2.7,0l0,-13.98l-2.7,0l0,13.98zm10.95,-4.73c3.59,0 5.07,-2.2 5.07,-4.76c0,-2.51 -1.28,-4.49 -5.07,-4.49l-5.52,0l0,13.98l2.7,0l0,-4.73l2.82,0zm-0.46,-6.89c1.91,0 2.69,0.76 2.69,2.21c0,1.46 -0.94,2.32 -2.67,2.32l-2.38,0l0,-4.53l2.36,0zm6.25,-2.36l0,2.3l4.21,0l0,11.68l2.7,0l0,-11.68l4.19,0l0,-2.3l-11.1,0zm16.91,-0.2l0,2.56c2.64,0 4.63,1.52 4.63,4.63c0,3.12 -1.99,4.65 -4.63,4.65c-2.56,0 -4.53,-1.53 -4.53,-4.65c0,0 -2.72,0 -2.72,0c0,4.61 3.22,7.19 7.25,7.19c4.13,0 7.33,-2.38 7.33,-7.19c0,-4.59 -3.2,-7.19 -7.33,-7.19zm16.04,0l0,2.56c2.63,0 4.63,1.52 4.63,4.63c0,3.12 -2,4.65 -4.63,4.65c-2.56,0 -4.54,-1.53 -4.54,-4.65c0,0 -2.71,0 -2.71,0c0,4.61 3.21,7.19 7.25,7.19c4.13,0 7.32,-2.38 7.32,-7.19c0,-4.59 -3.19,-7.19 -7.32,-7.19zm12.14,10.01l0,-9.81l-2.72,0l0,9.81l2.72,0zm-2.72,4.17l10.16,0l0,-2.64l-10.16,0l0,2.64zm11.84,0l5.75,0c4.3,0 5.49,-1.68 5.49,-3.89c0,-2.04 -1.89,-3.18 -4.17,-3.28l0,-0.1c1.74,-0.2 2.94,-1.26 2.94,-3.13c0,-1.96 -0.9,-3.58 -4.8,-3.58l-5.21,0l0,2.26l4.91,0c1.78,0 2.54,0.4 2.54,1.62c0,1.43 -1.12,1.73 -2.64,1.73l-4.81,0l0,2.44l5.07,0c1.98,0 3.32,0.5 3.32,1.9c0,1.39 -1.02,1.75 -3.28,1.75l-5.11,0l0,2.28zm19.51,-14.18l0,2.56c2.64,0 4.63,1.52 4.63,4.63c0,3.12 -1.99,4.65 -4.63,4.65c-2.55,0 -4.53,-1.53 -4.53,-4.65c0,0 -2.72,0 -2.72,0c0,4.61 3.22,7.19 7.25,7.19c4.14,0 7.33,-2.38 7.33,-7.19c0,-4.59 -3.19,-7.19 -7.33,-7.19zm10.81,0.2l-2.9,0l4.53,6.71l0,0.04l-4.99,7.23l3.04,0l3.37,-5.19l0.08,0l3.43,5.19l2.94,0l-9.5,-13.98zm5.53,5.51l3.53,-5.51l-2.85,0l-2.12,3.46l1.44,2.05z"/>
     </g>
    </g>
   </g>
   <g id="svg_20" fill="#333" class="tp-slogan iconsvg-slogansvg" data-gra="path-slogan">
    <rect id="svg_21" width="51.105" y="49.68833" height="1" x="116.885"/>
    <rect id="svg_22" x="222.14" width="51.105" y="49.68833" height="1"/>
    <g id="svg_23">
     <g id="svg_24" transform="translate(44.885 10.0114) scale(1 1)">
      <path id="svg_25" d="m126.673,44.72191l0,0q-0.57,0 -0.57,-0.55l0,0l0,-7.69q0,-0.56 0.57,-0.56l0,0q0.55,0 0.55,0.56l0,0l0,7.69q0,0.55 -0.55,0.55zm3.51,0l0,0q-0.56,0 -0.56,-0.55l0,0l0,-7.55q0,-0.31 0.19,-0.5q0.19,-0.2 0.5,-0.2l0,0l1.82,0q3.3,0 3.3,2.58l0,0q0,1.36 -0.9,2.07l0,0q-0.84,0.66 -2.34,0.66l0,0l-1.46,0l0,2.94q0,0.55 -0.55,0.55zm0.55,-7.9l0,3.51l1.31,0q1.17,0 1.72,-0.45q0.56,-0.44 0.56,-1.38l0,0q0,-0.92 -0.59,-1.32l0,0q-0.54,-0.36 -1.74,-0.36l0,0l-1.26,0zm19.12,7.9l-9.72,0q-0.44,0 -0.44,-0.44q0,-0.45 0.44,-0.45l0,0l4.33,0l0,-6.89l-3.69,0q-0.46,0 -0.46,-0.45q0,-0.46 0.46,-0.46l0,0l8.47,0q0.45,0 0.45,0.46q0,0.45 -0.45,0.45l0,0l-3.81,0l0,6.89l4.42,0q0.44,0 0.44,0.45q0,0.44 -0.44,0.44l0,0zm4.46,-8.59l0,0.84l5.42,0l0,-0.84q0,-0.24 -0.26,-0.24l0,0l-4.9,0q-0.26,0 -0.26,0.24l0,0zm0,1.5l0,1.08l5.42,0l0,-1.08l-5.42,0zm0,1.74l0,1.08l5.42,0l0,-1.08l-5.42,0zm6.93,6.11l0,0q-1.19,-0.66 -2.7,-1.26l0,0q-0.27,-0.1 -0.32,-0.27q-0.05,-0.17 0.15,-0.35l0,0q0.2,-0.2 0.52,-0.1l0,0q0.99,0.38 1.75,0.7l0,0l0.07,0.04q0.77,0.35 1.1,0.52l0,0q0.29,0.14 0.29,0.29q-0.01,0.15 -0.29,0.35l0,0q-0.31,0.24 -0.57,0.08zm-0.61,-9.6l0,6.31l1.18,0q0.41,0 0.41,0.41l0,0q0,0.42 -0.41,0.42l0,0l-9.66,0q-0.4,0 -0.4,-0.42l0,0q0,-0.41 0.4,-0.41l0,0l1.3,0l0,-6.31q0,-0.32 0.19,-0.51q0.19,-0.19 0.51,-0.19l0,0l5.78,0q0.31,0 0.5,0.19q0.2,0.19 0.2,0.51l0,0zm-6.32,5.23l0,1.08l5.42,0l0,-1.08l-5.42,0zm-2.24,4.26l0,0q-0.4,-0.42 0.19,-0.63l0,0q1.73,-0.6 2.7,-1.23l0,0q0.16,-0.1 0.29,-0.09l0,0q0.11,0.03 0.29,0.15l0,0q0.25,0.18 0.26,0.33q0,0.15 -0.25,0.3l0,0q-0.59,0.34 -1.31,0.66l0,0q-0.86,0.41 -1.63,0.65l0,0q-0.31,0.11 -0.54,-0.14zm14.21,0.27l0,0q-0.42,0 -0.42,-0.42l0,0l0,-3.57q-0.69,1.33 -1.53,2.36l0,0q-0.16,0.19 -0.3,0.19q-0.13,-0.01 -0.3,-0.21l0,0q-0.14,-0.17 -0.14,-0.3q0,-0.13 0.16,-0.29l0,0q0.52,-0.58 1.05,-1.44l0,0q0.52,-0.84 0.88,-1.7l0,0l-1.49,0q-0.41,0 -0.41,-0.42l0,0q0,-0.41 0.41,-0.41l0,0l1.67,0l0,-0.82q0,-0.24 0.15,-0.39q0.15,-0.15 0.39,-0.15l0,0l0.03,0q-0.19,-0.67 -0.58,-1.46l0,0l-0.5,0q-0.42,0.79 -0.86,1.39l0,0q-0.13,0.17 -0.26,0.19q-0.14,0.01 -0.32,-0.11l0,0q-0.39,-0.26 -0.09,-0.61l0,0q0.8,-1.03 1.29,-2.43l0,0q0.15,-0.41 0.56,-0.3l0,0q0.44,0.1 0.3,0.52l0,0q-0.08,0.2 -0.24,0.58l0,0l2.72,0q0.38,0 0.38,0.38q0,0.39 -0.38,0.39l0,0l-1.72,0q0.27,0.55 0.36,0.81l0,0q0.06,0.22 -0.03,0.41q-0.1,0.19 -0.33,0.29l0,0l-0.03,0.01l0,1.3l1.46,0q0.41,0 0.41,0.41l0,0q0,0.42 -0.41,0.42l0,0l-1.46,0l0,0.44q0.75,0.65 1.7,1.6l0,0q0.13,0.13 0.11,0.24l0,0q-0.01,0.07 -0.17,0.26l0,0q-0.17,0.22 -0.27,0.23l0,0q-0.14,0.03 -0.29,-0.16l0,0q-0.61,-0.74 -1.08,-1.25l0,0l0,3.6q0,0.42 -0.42,0.42zm6.86,-0.52l-3.5,0q-0.31,0 -0.51,-0.2q-0.19,-0.19 -0.19,-0.5l0,0l0,-5.22q0,-0.31 0.19,-0.5q0.2,-0.2 0.51,-0.2l0,0l3.5,0q0.31,0 0.51,0.2q0.19,0.19 0.19,0.5l0,0l0,5.22q0,0.31 -0.19,0.5q-0.2,0.2 -0.51,0.2l0,0zm-3.09,-0.76l0,0l2.66,0q0.25,0 0.25,-0.25l0,0l0,-1l-3.17,0l0,1q0,0.25 0.26,0.25zm-0.26,-3.17l0,1.23l3.17,0l0,-1.23l-3.17,0zm0,-1.63l0,0.94l3.17,0l0,-0.94q0,-0.25 -0.25,-0.25l0,0l-2.66,0q-0.26,0 -0.26,0.25l0,0zm-0.62,-1.64q-0.26,0.3 -0.6,0.07l0,0q-0.41,-0.29 -0.07,-0.65l0,0q0.78,-0.94 1.27,-2.29l0,0q0.13,-0.42 0.54,-0.31l0,0q0.44,0.1 0.3,0.54l0,0q-0.1,0.31 -0.22,0.56l0,0l3.47,0q0.39,0 0.39,0.38q0,0.39 -0.39,0.39l0,0l-2.19,0q0.33,0.47 0.61,0.97l0,0q0.08,0.18 0.03,0.28q-0.06,0.1 -0.25,0.19q-0.2,0.08 -0.31,0.06l0,0q-0.13,-0.04 -0.22,-0.22l0,0q-0.27,-0.56 -0.8,-1.28l0,0l-0.7,0q-0.4,0.77 -0.86,1.31l0,0z"/>
     </g>
    </g>
   </g>
  </g>
 </g>

 <g>
  <title>Layer 1</title>
 </g>
</svg>