<svg width="60" height="60" xmlns="http://www.w3.org/2000/svg" preserveAspectRatio="xMidYMid meet">
 <g fill="#333" class="icon-text-wrapper icon-svg-group iconsvg">
  <g class="iconsvg-imagesvg" id="svg_3">
   <g id="svg_4">
    <rect fill="#333" fill-opacity="0" stroke-width="2" x="0" y="0" width="60" height="59.977209" class="image-rect" id="svg_5"/>
    <g id="svg_1">
     <svg x="0" y="0" width="60" height="59.977209" class="image-svg-svg primary" id="svg_26">
      <g id="svg_27">
       <svg viewBox="-0.024392234161496162 -0.00439166696742177 206.4888916015625 206.41061401367188" id="svg_36">
        <title>资源 7</title>
        <g fill-rule="evenodd" id="svg_37">
         <path d="m176.24,176.18a102.91,102.91 0 0 1 -76.44,30.16c-8.75,-0.29 -10.94,-10.72 -6.79,-17c17.92,-27.07 75.72,-28.09 101.23,-60a56.23,56.23 0 0 0 10.57,-21.88c0.56,-2.21 1.26,-4.67 1.63,-6.42a102.92,102.92 0 0 1 -30.2,75.1l0,0.04z" fill="#03b2de" opacity="0.48" id="svg_43"/>
         <path d="m176.18,176.24a102.92,102.92 0 0 0 30.16,-76.44c-0.29,-8.76 -10.73,-10.94 -17,-6.79c-21.13,13.99 -26.34,52.29 -42.84,80.55c-9.44,16.21 -25.92,31.19 -45.38,32.82a102.78,102.78 0 0 0 75.06,-30.14z" fill="#8e03ff" opacity="0.48" id="svg_42"/>
         <path d="m30.22,30.28a102.94,102.94 0 0 1 76.44,-30.16c8.77,0.29 10.94,10.73 6.79,17c-17.91,27.07 -75.72,28.09 -101.23,60a56.23,56.23 0 0 0 -10.57,21.88c-0.56,2.17 -1.25,4.63 -1.65,6.38a102.93,102.93 0 0 1 30.2,-75.1l0.02,0z" fill="#00deb9" opacity="0.48" id="svg_41"/>
         <path d="m30.28,30.22a102.94,102.94 0 0 0 -30.16,76.44c0.29,8.77 10.73,10.94 17,6.79c27.07,-17.91 28.09,-75.72 60,-101.23a56.23,56.23 0 0 1 21.88,-10.57c2.21,-0.56 4.67,-1.25 6.42,-1.63a102.93,102.93 0 0 0 -75.1,30.2l-0.04,0z" fill="#1d88e1" opacity="0.48" id="svg_40"/>
         <path d="m44,187.8c-32.11,-55.4 181.83,-82.46 145,-142a103.71,103.71 0 0 0 -26.5,-27.07c25.84,44.36 -100,69.18 -138.89,106.54c-11.31,10.85 -12.71,26.36 -3.61,39.07a103.82,103.82 0 0 0 24,23.46z" fill="#8e03ff" opacity="0.48" id="svg_39"/>
         <path d="m187.75,44c-51.41,-29.78 -77.2,148.08 -127.43,150c-4.47,0.18 -9.6,-2 -14.56,-5a103.71,103.71 0 0 1 -27.07,-26.5c52.81,30.78 77.94,-153.5 129.48,-149.96c4.69,0.32 10.6,3.57 16.11,7.51a104.32,104.32 0 0 1 23.47,24l0,-0.05z" fill="#1d88e1" opacity="0.48" id="svg_38"/>
        </g>
       </svg>
      </g>
     </svg>
    </g>
    <!---->
   </g>
  </g>
  <g id="svg_15">
   <g class="tp-name iconsvg-namesvg" id="svg_16">
    <g transform="translate(44.88500213623047,95.01139831542969) scale(1) " id="svg_17">
     <g id="svg_18">
      <path d="m35.604998,-75.582224c0,-2.62 -1.85,-4.01 -4.83,-4.01c-2.69,0 -4.49,1.34 -4.49,3.14c0,4.26 7.07,2.72 7.07,5.47c0,0.95 -0.98,1.57 -2.38,1.57c-1.62,0 -2.57,-0.83 -2.57,-2.18l-2.29,0c0,2.77 1.95,4.02 4.91,4.02c2.7,0 4.58,-1.35 4.58,-3.41c0,-4.23 -7.14,-2.95 -7.14,-5.44c0,-1 1.22,-1.35 2.32,-1.35c1.52,0 2.57,0.85 2.57,2.19l2.25,0zm0.27,-3.84l0,2.19l9.28,0l0,-2.19l-9.28,0zm3.52,3.67l0,8.01l2.25,0l0,-8.01l-2.25,0zm11.55,-3.67l-2.86,0l-4.18,11.68l2.43,0l3.11,-9.26l0.16,0l3.32,9.26l2.61,0l-4.59,-11.68zm5.8,11.68l2.26,0l0,-4.12l2.62,0l2.18,4.12l2.54,0l-2.72,-4.51c1.42,-0.7 2.05,-2.23 2.05,-3.48c0,-2.35 -1.47,-3.69 -4.1,-3.69l-4.83,0l0,1.97l4.58,0c1.5,0 2.23,0.62 2.23,1.77c0,1.23 -0.87,1.95 -2.22,1.95l-4.59,0l0,5.99zm15.42,-3.95c3.01,0 4.24,-1.84 4.24,-3.98c0,-2.1 -1.07,-3.75 -4.24,-3.75l-4.6,0l0,11.68l2.25,0l0,-3.95l2.35,0zm-0.38,-5.76c1.6,0 2.25,0.63 2.25,1.85c0,1.22 -0.78,1.94 -2.24,1.94l-1.98,0l0,-3.79l1.97,0zm6,9.71l2.26,0l0,-4.12l2.62,0l2.18,4.12l2.54,0l-2.72,-4.51c1.42,-0.7 2.05,-2.23 2.05,-3.48c0,-2.35 -1.47,-3.69 -4.1,-3.69l-4.83,0l0,1.97l4.58,0c1.5,0 2.23,0.62 2.23,1.77c0,1.23 -0.87,1.95 -2.22,1.95l-4.59,0l0,5.99zm16.34,-11.85l0,2.14c2.2,0 3.87,1.27 3.87,3.87c0,2.6 -1.67,3.89 -3.87,3.89c-2.14,0 -3.79,-1.29 -3.79,-3.89c0,0 -2.27,0 -2.27,0c0,3.85 2.69,6.01 6.06,6.01c3.45,0 6.12,-1.99 6.12,-6.01c0,-3.84 -2.67,-6.01 -6.12,-6.01zm9.03,0.17l-2.42,0l3.78,5.61l0,0.03l-4.17,6.04l2.54,0l2.82,-4.34l0.07,0l2.87,4.34l2.45,0l-7.94,-11.68zm4.62,4.61l2.95,-4.61l-2.38,0l-1.77,2.89l1.2,1.72zm9.58,1.91l-3.66,-6.52l-2.59,0l3.99,7.01l0,4.67l2.26,0l0,-5.16zm0.75,-1.13l3.33,-5.39l-2.55,0l-1.99,3.42l1.21,1.97zm3.53,-5.39l0,1.92l3.52,0l0,9.76l2.26,0l0,-9.76l3.5,0l0,-1.92l-9.28,0zm19.04,2.19l0,-2.19l-8.64,0l0,2.19l8.64,0zm0,4.68l0,-2.06l-8.64,0l0,2.06l8.64,0zm-8.64,4.81l8.64,0l0,-2.2l-8.64,0l0,2.2zm14.81,-10.03c1.52,0 2.57,0.85 2.57,2.19l2.26,0c0,-2.62 -1.86,-4.01 -4.84,-4.01l0.01,1.82zm-4.5,1.32c0,4.26 7.07,2.72 7.07,5.47c0,0.95 -0.98,1.57 -2.38,1.57c-1.62,0 -2.57,-0.83 -2.57,-2.18l-2.29,0c0,2.77 1.96,4.02 4.91,4.02c2.7,0 4.59,-1.35 4.59,-3.41c0,-4.23 -7.14,-2.95 -7.14,-5.44l-2.19,-0.03zm9.59,-2.97l0,2.19l9.28,0l0,-2.19l-9.28,0zm3.52,3.67l0,8.01l2.26,0l0,-8.01l-2.26,0zm5.99,-3.67l0,1.92l3.52,0l0,9.76l2.26,0l0,-9.76l3.5,0l0,-1.92l-9.28,0zm14.14,-0.17l0,2.14c2.2,0 3.87,1.27 3.87,3.87c0,2.6 -1.67,3.89 -3.87,3.89c-2.14,0 -3.79,-1.29 -3.79,-3.89c0,0 -2.27,0 -2.27,0c0,3.85 2.69,6.01 6.06,6.01c3.45,0 6.12,-1.99 6.12,-6.01c0,-3.84 -2.67,-6.01 -6.12,-6.01zm13.39,0l0,2.14c2.21,0 3.88,1.27 3.88,3.87c0,2.6 -1.67,3.89 -3.88,3.89c-2.13,0 -3.78,-1.29 -3.78,-3.89c0,0 -2.27,0 -2.27,0c0,3.85 2.68,6.01 6.05,6.01c3.46,0 6.13,-1.99 6.13,-6.01c0,-3.84 -2.67,-6.01 -6.13,-6.01zm10.15,8.36l0,-8.19l-2.27,0l0,8.19l2.27,0zm-2.27,3.49l8.49,0l0,-2.2l-8.49,0l0,2.2z" id="svg_19"/>
     </g>
     <!---->
     <!---->
     <!---->
     <!---->
     <!---->
     <!---->
     <!---->
    </g>
   </g>
   <g class="tp-slogan iconsvg-slogansvg" fill="#333" id="svg_20">
    <rect x="76" height="1" y="44.499424" width="34.304394" id="svg_21"/>
    <rect height="1" y="44.499424" width="34.304394" x="210.925602" id="svg_22"/>
    <g id="svg_23">
     <g transform="translate(44.88500213623047,95.01139831542969) scale(1) " id="svg_24">
      <path d="m71.074458,-54.873367l-0.01,0.03l2,0q0.58,0 0.58,0.57l0,0q0,0.6 -0.58,0.6l0,0l-0.84,0q0.03,0.05 0.09,0.16q0.06,0.12 0.08,0.17l0,0q0.26,0.55 -0.31,0.8l0,0q-0.65,0.28 -0.88,-0.33l0,0q-0.02,-0.07 -0.41,-0.8l0,0l-0.39,0q-0.34,0.53 -0.71,0.96l0,0q-0.23,0.25 -0.43,0.27q-0.21,0.02 -0.47,-0.15l0,0q-0.36,-0.25 -0.37,-0.49q-0.02,-0.24 0.29,-0.54l0,0q0.56,-0.64 0.99,-1.5l0,0q0.12,-0.28 0.39,-0.39q0.28,-0.11 0.59,-0.02l0,0q0.27,0.07 0.38,0.24q0.12,0.18 0.01,0.42l0,0zm-0.89,4.73l0,0l0,5.01q0,0.68 -0.68,0.68l0,0q-0.7,0 -0.7,-0.68l0,0l0,-5.01q0,-0.69 0.7,-0.69l0,0q0.68,0 0.68,0.69zm0.03,-0.99l0,0q-0.03,-0.06 -0.07,-0.12q-0.04,-0.06 -0.1,-0.13q-0.06,-0.07 -0.09,-0.12l0,0q-0.46,-0.52 0.14,-0.9l0,0q0.46,-0.3 0.83,0.08l0,0q0.17,0.2 0.48,0.56l0,0q0.34,0.5 -0.18,0.83l0,0q-0.6,0.41 -1.01,-0.2zm2.29,2.08l0,0.28l2.32,0l0,-0.32q0,-0.26 -0.25,-0.26l0,0l-1.79,0q-0.28,0 -0.28,0.3l0,0zm2.32,1.58l0,-0.34l-2.32,0l0,0.35q0,0.28 0.27,0.28l0,0l1.77,0q0.28,0 0.28,-0.29l0,0zm-2.82,-2.93l0,0l3.36,0q0.35,0 0.57,0.22q0.21,0.21 0.21,0.56l0,0l0,2.7q0,0.35 -0.21,0.57q-0.22,0.22 -0.57,0.22l0,0l-3.36,0q-0.36,0 -0.57,-0.22q-0.22,-0.22 -0.22,-0.57l0,0l0,-2.7q0,-0.35 0.22,-0.56q0.21,-0.22 0.57,-0.22zm4.89,-0.68l0,0l-4.32,0q-0.63,0 -0.63,-0.63l0,0q0,-0.65 0.63,-0.65l0,0l4.07,0q-0.13,-0.41 -0.74,-1.32l0,0l-0.52,0q-0.17,0.33 -0.5,0.76l0,0q-0.24,0.27 -0.43,0.3q-0.2,0.04 -0.5,-0.15l0,0q-0.35,-0.23 -0.37,-0.47q-0.01,-0.24 0.27,-0.56l0,0q0.42,-0.55 0.71,-1.25l0,0q0.11,-0.31 0.37,-0.42q0.25,-0.12 0.58,-0.05l0,0q0.27,0.06 0.39,0.23q0.13,0.18 0.05,0.42l0,0q-0.02,0.02 -0.02,0.03l0,0l2.49,0q0.57,0 0.57,0.57l0,0q0,0.59 -0.57,0.59l0,0l-1,0q0.01,0.02 0.07,0.1q0.05,0.07 0.07,0.12q0.03,0.04 0.07,0.11q0.05,0.08 0.06,0.13q0.01,0.05 0.04,0.12q0.02,0.07 0.01,0.13q-0.01,0.05 -0.04,0.11q-0.02,0.06 -0.08,0.1q-0.06,0.05 -0.14,0.09l0,0l-0.7,0.31l1.02,0q0.35,0 0.57,0.22q0.21,0.22 0.21,0.57l0,0l0,5.61q0,0.54 -0.16,0.83q-0.15,0.28 -0.54,0.44l0,0q-0.48,0.17 -1.61,0.2l0,0q-0.72,0 -0.9,-0.48l0,0q-0.14,-0.39 0.08,-0.56q0.23,-0.17 0.71,-0.16l0,0q0.52,0.02 0.71,0l0,0q0.32,-0.01 0.32,-0.28l0,0l0,-4.83q0,-0.28 -0.3,-0.28zm8.03,1.36l0,-0.83l-2.18,0l0,0.54q0,0.29 0.3,0.29l0,0l1.88,0zm0,-1.91l0,-0.82l-1.88,0q-0.3,0 -0.3,0.29l0,0l0,0.53l2.18,0zm1.44,-0.82l0,0.82l2.26,0l0,-0.53q0,-0.29 -0.29,-0.29l0,0l-1.97,0zm0,1.9l0,0.83l1.97,0q0.29,0 0.29,-0.29l0,0l0,-0.54l-2.26,0zm0,2l0,0.77l4,0q0.67,0 0.67,0.67q0,0.67 -0.67,0.67l0,0l-4,0l0,1.24q0,0.72 -0.71,0.72l0,0q-0.73,0 -0.73,-0.72l0,0l0,-1.24l-3.94,0q-0.66,0 -0.66,-0.67q0,-0.67 0.66,-0.67l0,0l3.94,0l0,-0.77l-2.76,0q-0.36,0 -0.57,-0.22q-0.22,-0.21 -0.22,-0.56l0,0l0,-3.51q0,-0.35 0.22,-0.56q0.21,-0.21 0.57,-0.21l0,0l1.12,0q-0.13,-0.26 -0.5,-0.82l0,0q-0.49,-0.63 0.26,-0.95l0,0q0.49,-0.21 0.83,0.2l0,0q0.49,0.61 0.65,0.89l0,0q0.11,0.16 0.03,0.38q-0.07,0.22 -0.31,0.3l0,0l2.55,0q0.38,-0.59 0.72,-1.28l0,0q0.28,-0.68 1.01,-0.47l0,0q0.87,0.25 0.32,1.07l0,0q-0.09,0.14 -0.25,0.38q-0.16,0.24 -0.21,0.3l0,0l0.91,0q0.35,0 0.57,0.21q0.22,0.21 0.22,0.56l0,0l0,3.51q0,0.35 -0.22,0.56q-0.22,0.22 -0.57,0.22l0,0l-2.93,0zm9.44,1.33l0,-2.08l-1.9,0l0,2.08q0,0.28 0.29,0.28l0,0l1.33,0q0.28,0 0.28,-0.28l0,0zm-1.9,-4.96l0,1.65l1.9,0l0,-1.65q0,-0.29 -0.28,-0.29l0,0l-1.33,0q-0.29,0 -0.29,0.29l0,0zm5.66,-1.63l0,0l2.56,0q0.39,0 0.58,0.34q0.19,0.34 0.16,1.22l0,0q-0.1,3.64 -0.25,5.11q-0.16,1.46 -0.49,1.88l0,0q-0.35,0.48 -0.79,0.6q-0.45,0.12 -1.41,0.12l0,0q-0.37,-0.01 -0.63,-0.21q-0.25,-0.19 -0.31,-0.52l0,0q0,-0.01 -0.01,-0.03l0,0q-0.15,-0.31 -0.02,-0.47q0.14,-0.15 0.56,-0.13l0,0q0.41,0.01 0.93,0.01l0,0q0.31,0 0.51,-0.2l0,0q0.25,-0.28 0.39,-1.6q0.14,-1.33 0.23,-4.27l0,0q0.02,-0.33 -0.05,-0.44q-0.07,-0.11 -0.23,-0.11l0,0l-2.25,0q-0.16,0.4 -0.62,1.23l0,0q-0.17,0.28 -0.48,0.33q-0.3,0.06 -0.61,-0.15l0,0q-0.04,-0.04 -0.13,-0.1q-0.08,-0.06 -0.13,-0.09l0,0l0,4.83q0,0.35 -0.21,0.57q-0.22,0.21 -0.57,0.21l0,0l-2.9,0q-0.35,0 -0.56,-0.21q-0.21,-0.22 -0.21,-0.57l0,0l0,-6.48q0,-0.35 0.21,-0.57q0.21,-0.21 0.56,-0.21l0,0l0.58,0q0.13,-0.48 0.24,-1.17l0,0q0.06,-0.4 0.26,-0.55q0.19,-0.15 0.59,-0.1l0,0q0.8,0.11 0.5,0.96l0,0q-0.08,0.24 -0.33,0.86l0,0l1.06,0q0.35,0 0.57,0.21q0.21,0.22 0.21,0.57l0,0l0,1.16q0.85,-1.21 1.43,-3.18l0,0q0.18,-0.67 0.85,-0.53l0,0q0.67,0.16 0.49,0.82l0,0q-0.09,0.34 -0.28,0.86zm-0.13,5.6l0,0q-0.48,-0.83 -0.98,-1.62l0,0q-0.34,-0.55 0.23,-0.86l0,0q0.55,-0.3 0.86,0.16l0,0q0.56,0.8 1.11,1.7l0,0q0.29,0.5 -0.28,0.84l0,0q-0.64,0.41 -0.94,-0.22zm14.05,-5.26l0,0q-0.32,-0.43 -0.77,-0.93l0,0q-0.51,-0.51 0.11,-0.9l0,0q0.45,-0.27 0.82,0.08l0,0q0.65,0.67 1,1.1l0,0q0.36,0.5 -0.2,0.84l0,0q-0.6,0.38 -0.96,-0.19zm-6.13,0.56l0,0l0,7.71q0,0.73 -0.73,0.73l0,0q-0.75,0 -0.75,-0.73l0,0l0,-5.58q-0.35,0.45 -0.55,0.66l0,0q-0.35,0.36 -0.62,0.34q-0.27,-0.03 -0.5,-0.47l0,0q-0.18,-0.34 -0.14,-0.6q0.03,-0.25 0.31,-0.51l0,0q1.52,-1.51 2.45,-3.55l0,0q0.27,-0.65 0.93,-0.44l0,0q0.7,0.24 0.41,0.91l0,0q-0.36,0.78 -0.81,1.53zm7.14,1.76l0,0q-0.75,0.09 -2.78,0.37l0,0q0.56,4.41 1.92,4.58l0,0q0.19,0.02 0.3,-0.38l0,0q0.08,-0.62 0.32,-0.95q0.25,-0.33 0.65,-0.05l0,0q0.2,0.13 0.24,0.58q0.05,0.46 -0.02,0.7l0,0q-0.23,1.03 -0.6,1.45q-0.37,0.41 -0.83,0.38l0,0q-1.45,-0.14 -2.25,-1.68q-0.8,-1.54 -1.14,-4.43l0,0l-1.65,0.23q-0.69,0.09 -0.78,-0.6l0,0q-0.08,-0.68 0.59,-0.77l0,0l1.72,-0.24q-0.09,-0.96 -0.17,-2.73l0,0q-0.02,-0.78 0.7,-0.78l0,0q0.71,0 0.73,0.75l0,0q0.04,1.55 0.13,2.57l0,0l2.73,-0.36q0.67,-0.09 0.76,0.59l0,0q0.1,0.69 -0.57,0.77zm2.34,-3.82l0,0l2.6,0q0.66,0 0.66,0.66l0,0q0,0.68 -0.66,0.68l0,0l-0.62,0l0,2.1l0.42,0q0.65,0 0.65,0.65l0,0q0,0.67 -0.65,0.67l0,0l-0.42,0l0,2.39l0.46,-0.14q0.71,-0.23 0.84,0.51l0,0q0.11,0.61 -0.48,0.81l0,0q-0.24,0.08 -2.59,0.86l0,0q-0.71,0.23 -0.86,-0.53l0,0q-0.14,-0.69 0.5,-0.86l0,0q0.4,-0.11 0.81,-0.23l0,0l0,-2.81l-0.55,0q-0.66,0 -0.66,-0.67l0,0q0,-0.65 0.66,-0.65l0,0l0.55,0l0,-2.1l-0.66,0q-0.65,0 -0.65,-0.68l0,0q0,-0.66 0.65,-0.66zm6.21,4.18l0,-1.03l-1.23,0l0,0.75q0,0.28 0.3,0.28l0,0l0.93,0zm0,-2.15l0,-1l-0.96,0q-0.27,0 -0.27,0.27l0,0l0,0.73l1.23,0zm1.19,-1l0,1l1.17,0l0,-0.71q0,-0.29 -0.28,-0.29l0,0l-0.89,0zm0,2.12l0,1.03l0.92,0q0.25,0 0.25,-0.24l0,0l0,-0.79l-1.17,0zm2.4,7l0,0l-6.34,0q-0.65,0 -0.65,-0.65q0,-0.64 0.65,-0.64l0,0l2.64,0l0,-1.15l-1.83,0q-0.64,0 -0.64,-0.64l0,0q0,-0.64 0.64,-0.64l0,0l1.83,0l0,-1.03l-1.61,0q-0.35,0 -0.56,-0.21q-0.21,-0.22 -0.21,-0.57l0,0l0,-4.02q0,-0.35 0.21,-0.57q0.21,-0.21 0.56,-0.21l0,0l4.65,0q0.35,0 0.57,0.21q0.21,0.22 0.21,0.57l0,0l0,4.02q0,0.35 -0.21,0.57q-0.22,0.21 -0.57,0.21l0,0l-1.61,0l0,1.03l1.88,0q0.63,0 0.63,0.64l0,0q0,0.64 -0.63,0.64l0,0l-1.88,0l0,1.15l2.27,0q0.64,0 0.64,0.64q0,0.65 -0.64,0.65zm5.51,-10.2l0,0l2.65,0q0.35,0 0.56,0.22q0.22,0.22 0.22,0.57l0,0l0,6.42q0,0.55 -0.55,0.55q-0.55,0 -0.55,-0.55l0,0l0,-5.91q0,-0.29 -0.29,-0.29l0,0l-1.48,0q-0.28,0 -0.28,0.29l0,0l0,6.02q0,0.52 -0.54,0.52l0,0q-0.53,0 -0.53,-0.52l0,0l0,-6.53q0,-0.35 0.22,-0.57q0.22,-0.22 0.57,-0.22zm-2.21,1.37l0,0q-0.21,-0.15 -0.77,-0.5l0,0q-0.62,-0.38 -0.15,-0.95l0,0q0.35,-0.46 0.84,-0.21l0,0q0.46,0.25 0.97,0.56l0,0q0.53,0.37 0.12,0.92l0,0q-0.46,0.61 -1.01,0.18zm-0.45,3.16l0,0q-0.27,-0.18 -0.79,-0.48l0,0q-0.61,-0.36 -0.15,-0.93l0,0q0.33,-0.45 0.82,-0.21l0,0q0.22,0.1 0.98,0.55l0,0q0.28,0.19 0.3,0.4q0.02,0.21 -0.19,0.49l0,0q-0.43,0.59 -0.97,0.18zm-0.93,4.61l0,0q0.66,-1.57 1.01,-2.54l0,0q0.26,-0.76 0.92,-0.3l0,0q0.47,0.29 0.3,0.82l0,0q-0.42,1.31 -0.93,2.61l0,0q-0.29,0.71 -0.97,0.32l0,0q-0.59,-0.33 -0.33,-0.91zm5.39,-6.97l0,0l0,4.09q0,1.36 -0.39,2.25l0,0l0.41,-0.26q0.33,-0.2 0.6,0.1l0,0q0.55,0.58 1.01,1.19l0,0q0.13,0.22 0.08,0.37q-0.04,0.14 -0.28,0.28l0,0q-0.22,0.15 -0.39,0.14q-0.17,-0.01 -0.3,-0.24l0,0q-0.67,-0.92 -1.17,-1.47l0,0q-0.49,1.03 -1.49,1.65l0,0q-0.57,0.29 -0.83,-0.08l0,0q-0.15,-0.3 -0.01,-0.53q0.14,-0.24 0.46,-0.41l0,0q0.78,-0.56 1.03,-1.28q0.25,-0.73 0.25,-1.73l0,0l0,-4.07q0,-0.5 0.52,-0.5l0,0q0.5,0 0.5,0.5zm2.19,5.12l0,0l0,-6.29q0,-0.53 0.54,-0.53l0,0q0.53,0 0.53,0.53l0,0l0,6.29q0,0.53 -0.53,0.53l0,0q-0.54,0 -0.54,-0.53zm1.63,1.84l0,0l0,-9.02q0,-0.55 0.55,-0.55q0.55,0 0.55,0.55l0,0l0,9.02q0,0.49 -0.11,0.76q-0.11,0.27 -0.39,0.41l0,0q-0.28,0.13 -0.67,0.2q-0.4,0.06 -0.78,-0.04q-0.39,-0.1 -0.48,-0.41l0,0q-0.11,-0.37 0.09,-0.53q0.2,-0.15 0.62,-0.14l0,0l0.38,0q0.24,0 0.24,-0.25zm4.14,-7.77l0,0q-0.18,-0.19 -0.54,-0.53l0,0q-0.47,-0.44 0.02,-0.9l0,0q0.41,-0.4 0.85,-0.04l0,0q0.58,0.5 1.09,1.01l0,0q0.21,0.26 0.19,0.44q-0.02,0.17 -0.25,0.41l0,0q-0.3,0.29 -0.53,0.29q-0.23,-0.01 -0.49,-0.33l0,0q-0.05,-0.06 -0.34,-0.35zm2.99,3.04l0,0l1.86,0q0.64,0 0.64,0.64l0,0q0,0.66 -0.64,0.66l0,0l-0.25,0l0,2.25q0.18,-0.05 0.55,-0.14l0,0q0.64,-0.18 0.74,0.49l0,0q0.1,0.56 -0.47,0.73l0,0q-0.22,0.07 -1.02,0.31q-0.79,0.24 -1.19,0.34l0,0q-0.31,0.1 -0.56,-0.06q-0.26,-0.15 -0.34,-0.48l0,0l-0.12,-0.42q-1.86,1.24 -2.13,1.47l0,0q-0.32,-0.06 -0.5,-0.46l0,0q0,-0.01 0,-0.01l0,0l-0.01,-0.03q-0.15,-0.25 -0.13,-0.53q0.03,-0.27 0.2,-0.47l0,0q0.19,-0.32 0.19,-0.64l0,0l0,-3.35q0,-0.28 -0.28,-0.28l0,0l-0.42,0q-0.69,0 -0.69,-0.69l0,0q0,-0.68 0.69,-0.68l0,0l1.26,0q0.35,0 0.57,0.22q0.22,0.21 0.22,0.56l0,0l0,4.08l0.56,-0.36q0.5,-0.31 0.63,0.28l0,0q0.11,0.35 0.24,0.63l0,0l-0.01,0.02q0.08,-0.03 0.32,-0.09q0.25,-0.07 0.4,-0.1l0,0l0,-2.59l-0.31,0q-0.65,0 -0.65,-0.66l0,0q0,-0.64 0.65,-0.64zm2.73,-1.37l0,0l-3.06,0q-0.68,0 -0.68,-0.68q0,-0.68 0.68,-0.68l0,0l3.01,0q-0.02,-0.96 -0.03,-1.47l0,0q-0.03,-0.74 0.7,-0.74q0.72,0 0.72,0.73l0,0q0,0.52 0.03,1.48l0,0l0.81,0q0.29,0 0.18,-0.23l0,0q-0.16,-0.3 -0.56,-0.87l0,0q-0.36,-0.5 0.15,-0.81l0,0q0.41,-0.25 0.75,0.13l0,0q0.27,0.32 0.5,0.65l0,0q0.14,0.24 0.07,0.51q-0.06,0.27 -0.33,0.43l0,0l-0.29,0.19l0.22,0q0.67,0 0.67,0.68q0,0.68 -0.67,0.68l0,0l-1.47,0q0.11,2.43 0.34,3.98q0.24,1.55 0.53,1.56l0,0q0.09,0 0.16,-0.24l0,0q0.06,-0.59 0.29,-0.87q0.22,-0.29 0.61,0.01l0,0q0.18,0.13 0.22,0.57q0.03,0.44 -0.04,0.67l0,0q-0.42,1.8 -1.29,1.78l0,0q-1.06,-0.01 -1.56,-1.87q-0.5,-1.87 -0.66,-5.59zm13.22,5.73l0,-0.74l-1.12,0q-0.28,0 -0.28,0.29l0,0l0,0.45q0,0.29 0.28,0.29l0,0l0.83,0q0.29,0 0.29,-0.29l0,0zm-6.09,0.29l0,0l0.72,0q0.28,0 0.28,-0.29l0,0l0,-0.45q0,-0.29 -0.28,-0.29l0,0l-1,0l0,0.74q0,0.29 0.28,0.29zm-0.03,-6.93l0,0l1.04,0l0,-0.77q0,-0.29 -0.28,-0.29l0,0l-0.76,0q-0.28,0 -0.28,0.29l0,0l0,0.49q0,0.28 0.28,0.28zm5.83,-1.06l0,0l-0.84,0q-0.28,0 -0.28,0.29l0,0l0,0.49q0,0.28 0.28,0.28l0,0l0.84,0q0.29,0 0.29,-0.28l0,0l0,-0.49q0,-0.29 -0.29,-0.29zm-1.62,-1.2l0,0l2.49,0q0.35,0 0.56,0.21q0.22,0.21 0.22,0.57l0,0l0,1.91q0,0.35 -0.22,0.56q-0.21,0.22 -0.56,0.22l0,0l-1.16,0q0.59,0.28 0.78,0.4l0,0q0.17,0.13 0.16,0.3q-0.01,0.17 -0.18,0.33l0,0l1.41,0q0.61,0 0.61,0.61l0,0q0,0.62 -0.61,0.62l0,0l-2.16,0q0.89,0.68 2.15,1.16l0,0q0.47,0.15 0.55,0.47q0.08,0.32 -0.24,0.72l0,0q-0.21,0.27 -0.5,0.17l0,0q-0.01,-0.01 -0.02,-0.01l0,0l0,1.41q0,0.35 -0.21,0.56q-0.21,0.22 -0.57,0.22l0,0l-2.48,0q-0.35,0 -0.57,-0.22q-0.22,-0.21 -0.22,-0.56l0,0l0,-1.94q0,-0.35 0.22,-0.56q0.22,-0.21 0.57,-0.21l0,0l0.83,0q-0.68,-0.52 -1.28,-1.21l0,0l-1.96,0q-0.68,0.73 -1.35,1.21l0,0l1.11,0q0.35,0 0.57,0.21q0.22,0.21 0.22,0.56l0,0l0,1.94q0,0.35 -0.22,0.56q-0.22,0.22 -0.57,0.22l0,0l-2.33,0q-0.35,0 -0.57,-0.22q-0.22,-0.21 -0.22,-0.56l0,0l0,-1.54l-0.02,0.01q-0.42,0.18 -0.67,-0.21l0,0q-0.24,-0.36 -0.14,-0.64q0.11,-0.28 0.52,-0.45l0,0q1.03,-0.5 1.78,-1.09l0,0l-1.75,0q-0.61,0 -0.61,-0.62l0,0q0,-0.61 0.61,-0.61l0,0l2.97,0q0.42,-0.56 0.64,-1.03l0,0l-2.54,0q-0.35,0 -0.57,-0.22q-0.22,-0.21 -0.22,-0.56l0,0l0,-1.91q0,-0.36 0.22,-0.57q0.22,-0.21 0.57,-0.21l0,0l2.32,0q0.35,0 0.57,0.21q0.21,0.21 0.21,0.57l0,0l0,2.62l0.5,0.11q0.18,0.03 0.25,0.15q0.06,0.13 -0.03,0.29l0,0q-0.15,0.31 -0.32,0.55l0,0l2.63,0q-0.38,-0.24 -0.67,-0.37l0,0q-0.52,-0.23 -0.08,-0.66l0,0l-0.65,0q-0.25,0 -0.41,-0.15q-0.15,-0.15 -0.15,-0.42l0,0l0,-2.12q0,-0.36 0.22,-0.57q0.21,-0.21 0.57,-0.21z" id="svg_25"/>
     </g>
    </g>
   </g>
  </g>
 </g>

 <g>
  <title>Layer 1</title>
 </g>
 <g>
  <title>background</title>
 </g>
</svg>